<svg height="25.791" viewBox="0 0 25.792 25.791" width="25.792" xmlns="http://www.w3.org/2000/svg">
    <g id="bank" transform="translate(0 -0.008)">
        <g data-name="Group 217" id="Group_217" transform="translate(0 0.008)">
            <g data-name="Group 216" id="Group_216" transform="translate(0 0)">
                <path d="M25.013,22.812a5.911,5.911,0,0,0-1.37-7.48v-3.5h.537a.537.537,0,0,0,.537-.537V9.679h.537a.537.537,0,0,0,.306-.978L13.2.1a.537.537,0,0,0-.613,0L.231,8.7a.537.537,0,0,0,.306.978h.537v1.612a.537.537,0,0,0,.537.537h.537v8.6H1.612a.537.537,0,0,0-.537.537v1.709A1.612,1.612,0,0,0,0,24.187v1.075a.537.537,0,0,0,.537.537H25.254a.537.537,0,0,0,.537-.537V24.187A1.612,1.612,0,0,0,25.013,22.812Zm-1.37-12.058h-4.3V9.679h4.3Zm-1.075,1.075v2.8A5.857,5.857,0,0,0,20.418,14V11.829h2.149ZM12.9,1.2,23.54,8.6H2.251ZM6.985,20.426H6.448v-8.6h.537a.537.537,0,0,0,.537-.537V9.679H9.672v1.612a.537.537,0,0,0,.537.537h.537v8.6h-.537a.537.537,0,0,0-.537.537v1.612H7.523V20.963A.537.537,0,0,0,6.985,20.426ZM10.747,21.5H14.2a5.862,5.862,0,0,0,.425,1.075H10.747V21.5Zm1.075-1.075v-8.6h2.149v8.6Zm2.687-9.672H10.747V9.679h4.3v1.075Zm.537,1.075h.537a.537.537,0,0,0,.537-.537V9.679h2.149v1.612a.537.537,0,0,0,.537.537h.537V14a5.911,5.911,0,0,0-4.3,2.493ZM2.149,9.679h4.3v1.075h-4.3Zm3.224,2.149v8.6H3.224v-8.6ZM2.149,21.5h4.3v1.075h-4.3ZM1.075,24.724v-.537a.537.537,0,0,1,.537-.537H15.325a5.959,5.959,0,0,0,1.166,1.075H1.075Zm23.642,0H23.266A5.955,5.955,0,0,0,24.395,23.7a.537.537,0,0,1,.322.489Zm-4.836,0a4.836,4.836,0,1,1,4.836-4.836A4.836,4.836,0,0,1,19.881,24.724Z" data-name="Path 166"
                    fill="#fff"
                    id="Path_166" transform="translate(0 -0.008)" />
                <path d="M160.961,48.984l-5.911-4.3-.661.87,4.573,3.326h-9.629v1.075h11.284a.539.539,0,0,0,.344-.973Z" data-name="Path 167"
                    fill="#fff"
                    id="Path_167" transform="translate(-141.81 -42.434)" />
                <path d="M355.224,321.067h-.537v-1.075h-1.075v1.075h-.537A1.075,1.075,0,0,0,352,322.141v1.075a1.075,1.075,0,0,0,1.075,1.075h2.149v1.075h-2.149v-.537H352v.537a1.075,1.075,0,0,0,1.075,1.075h.537v1.075h1.075V326.44h.537a1.075,1.075,0,0,0,1.075-1.075v-1.075a1.075,1.075,0,0,0-1.075-1.075h-2.149v-1.075h2.149v.537H356.3v-.537A1.075,1.075,0,0,0,355.224,321.067Z" data-name="Path 168"
                    fill="#fff"
                    id="Path_168" transform="translate(-334.268 -303.873)" />
            </g>
        </g>
    </g>
</svg>
