<svg height="29.522" viewBox="0 0 29.522 29.522" width="29.522" xmlns="http://www.w3.org/2000/svg">
    <g data-name="info (1)" id="info_1_" transform="translate(0)">
        <path d="M412,126.577a.577.577,0,1,0,.577-.577A.577.577,0,0,0,412,126.577Zm0,0" data-name="Path 150"
            id="Path_150"
            transform="translate(-388.244 -118.735)" />
        <path d="M433.784,165.759a10.985,10.985,0,0,1-.22,2.191.577.577,0,0,0,.45.68.568.568,0,0,0,.116.012.577.577,0,0,0,.564-.462,12.134,12.134,0,0,0,.243-2.422,11.978,11.978,0,0,0-1.171-5.193.577.577,0,1,0-1.041.5A10.835,10.835,0,0,1,433.784,165.759Zm0,0" data-name="Path 151"
            id="Path_151"
            transform="translate(-407.722 -150.998)" />
        <path d="M202.343,214.072h-.577v-7.5a.577.577,0,0,0-.577-.577h-4.613a.577.577,0,0,0-.577.577v2.306a.577.577,0,0,0,.577.577h.577v4.613h-.577a.577.577,0,0,0-.577.577v2.306a.577.577,0,0,0,.577.577h5.766a.577.577,0,0,0,.577-.577v-2.306A.577.577,0,0,0,202.343,214.072Zm-.577,2.306h-4.613v-1.153h.577a.577.577,0,0,0,.577-.577v-5.766a.577.577,0,0,0-.577-.577h-.577v-1.153h3.46v7.5a.577.577,0,0,0,.577.577h.577Zm0,0" data-name="Path 152"
            id="Path_152"
            transform="translate(-184.699 -194.122)" />
        <path d="M218.306,110.613A2.306,2.306,0,1,0,216,108.306,2.309,2.309,0,0,0,218.306,110.613Zm0-3.46a1.153,1.153,0,1,1-1.153,1.153A1.155,1.155,0,0,1,218.306,107.153Zm0,0" data-name="Path 153"
            id="Path_153"
            transform="translate(-203.546 -99.888)" />
        <path d="M14.761,0A15.011,15.011,0,0,0,0,14.761a15.723,15.723,0,0,0,2.1,7.806l-2.066,6.2a.577.577,0,0,0,.73.729l6.2-2.065a15.72,15.72,0,0,0,7.806,2.1A15.011,15.011,0,0,0,29.522,14.761,15.011,15.011,0,0,0,14.761,0Zm0,28.369a14.422,14.422,0,0,1-7.424-2.061.576.576,0,0,0-.491-.06L1.488,28.034l1.786-5.357a.576.576,0,0,0-.06-.491,14.422,14.422,0,0,1-2.061-7.424A13.79,13.79,0,0,1,14.761,1.153,13.79,13.79,0,0,1,28.368,14.761,13.79,13.79,0,0,1,14.761,28.369Zm0,0" data-name="Path 154"
            id="Path_154"
            transform="translate(0)" />
    </g>
</svg>
