<svg height="18.81" viewBox="0 0 18.811 18.81" width="18.811" xmlns="http://www.w3.org/2000/svg">
    <g id="logout" transform="translate(0 -0.008)">
        <path d="M285.366,209.184H277.92a.588.588,0,0,1,0-1.176h7.446a.588.588,0,1,1,0,1.176Zm0,0" data-name="Path 169"
            id="Path_169"
            transform="translate(-267.143 -200.358)" />
        <path d="M400.592,135.025a.588.588,0,0,1-.415-1L402.7,131.5l-2.524-2.524a.588.588,0,0,1,.832-.832l2.939,2.939a.588.588,0,0,1,0,.832l-2.939,2.939A.584.584,0,0,1,400.592,135.025Zm0,0" data-name="Path 170"
            id="Path_170"
            transform="translate(-385.308 -123.261)" />
        <path d="M6.27,18.818a1.615,1.615,0,0,1-.486-.073L1.067,17.174A1.582,1.582,0,0,1,0,15.683V1.576A1.569,1.569,0,0,1,1.567.008a1.617,1.617,0,0,1,.486.073L6.77,1.652A1.582,1.582,0,0,1,7.837,3.143V17.251A1.569,1.569,0,0,1,6.27,18.818ZM1.567,1.184a.393.393,0,0,0-.392.392V15.683a.407.407,0,0,0,.272.378l4.695,1.564a.426.426,0,0,0,.128.017.393.393,0,0,0,.392-.392V3.143a.407.407,0,0,0-.272-.378L1.7,1.2a.425.425,0,0,0-.128-.017Zm0,0" data-name="Path 171"
            id="Path_171"
            transform="translate(0 0)" />
        <path d="M37.641,6.278a.588.588,0,0,1-.588-.588V2.163a.981.981,0,0,0-.98-.98H27.256a.588.588,0,0,1,0-1.176h8.817a2.157,2.157,0,0,1,2.155,2.155V5.69A.588.588,0,0,1,37.641,6.278Zm0,0" data-name="Path 172"
            id="Path_172"
            transform="translate(-25.688)" />
        <path d="M185.055,283.61H181.92a.588.588,0,0,1,0-1.176h3.135a.981.981,0,0,0,.98-.98v-3.527a.588.588,0,0,1,1.176,0v3.527A2.157,2.157,0,0,1,185.055,283.61Zm0,0" data-name="Path 173"
            id="Path_173"
            transform="translate(-174.67 -267.143)" />
    </g>
</svg>
