<svg height="36" viewBox="0 0 27.422 36" width="27.422" xmlns="http://www.w3.org/2000/svg">
    <g id="money" transform="translate(-61)">
        <g data-name="Group 209" id="Group_209" transform="translate(71.479 15.961)">
            <g data-name="Group 208" id="Group_208">
                <path d="M213.273,233.328a1.055,1.055,0,0,1-.411-2.027,1.443,1.443,0,0,1,1.551.468,1.055,1.055,0,0,0,1.468-1.515,4.142,4.142,0,0,0-1.553-.971v-1.229a1.055,1.055,0,0,0-2.109,0v1.235c-.06.021-.119.044-.179.069a3.164,3.164,0,0,0,1.233,6.078,1.055,1.055,0,0,1,.361,2.046,1.62,1.62,0,0,1-1.73-.734,1.055,1.055,0,1,0-1.615,1.357,4.383,4.383,0,0,0,1.93,1.379v1.226a1.055,1.055,0,1,0,2.109,0v-1.236l.028-.01a3.164,3.164,0,0,0-1.083-6.138Z" data-name="Path 164"
                    id="Path_164"
                    transform="translate(-210.042 -227)" />
            </g>
        </g>
        <g data-name="Group 211" id="Group_211" transform="translate(61 0)">
            <g data-name="Group 210" id="Group_210">
                <path d="M84.479,15.839a14.955,14.955,0,0,0-4.26-3.654,3.17,3.17,0,0,0-1.566-5.1L81.346,2.39a1.055,1.055,0,0,0-.62-1.537A21.632,21.632,0,0,0,68.7.853a1.055,1.055,0,0,0-.62,1.537l2.692,4.694a3.168,3.168,0,0,0-1.565,5.1,14.955,14.955,0,0,0-4.26,3.655A17.3,17.3,0,0,0,61,26.508C61,34.178,67.12,36,74.711,36s13.711-1.825,13.711-9.492A17.3,17.3,0,0,0,84.479,15.839ZM70.6,2.547a19.57,19.57,0,0,1,8.227,0L76.5,6.6a12.937,12.937,0,0,0-3.582,0Zm.689,6.587a10.9,10.9,0,0,1,5.56-.339h.007a11.134,11.134,0,0,1,1.281.337,1.055,1.055,0,0,1-.215,2.051,10.614,10.614,0,0,0-6.41,0,1.053,1.053,0,0,1-.223-2.049ZM74.711,33.9c-8.24,0-11.6-2.153-11.6-7.4a15.37,15.37,0,0,1,3.471-9.339c2.292-2.819,5.179-4.372,8.131-4.372a10.729,10.729,0,0,1,8.131,4.372,15.37,15.37,0,0,1,3.471,9.339C86.313,31.752,82.951,33.9,74.711,33.9Z" data-name="Path 165"
                    id="Path_165"
                    transform="translate(-61 0)" />
            </g>
        </g>
    </g>
</svg>
